<svg xmlns="http://www.w3.org/2000/svg" width="40" height="40" viewBox="0 0 40 40" fill="none">
<mask id="mask0_17_347" style="mask-type:alpha" maskUnits="userSpaceOnUse" x="0" y="0" width="40" height="40">
<rect width="40" height="40" fill="#D9D9D9"/>
</mask>
<g mask="url(#mask0_17_347)">
<path d="M4.99996 16.6663C4.52774 16.6663 4.13218 16.4997 3.81329 16.1663C3.49329 15.833 3.36107 15.4441 3.41662 14.9997C3.61107 13.1663 4.09051 11.4091 4.85496 9.72801C5.61829 8.04801 6.62496 6.54134 7.87496 5.20801C8.18051 4.90245 8.5694 4.74967 9.04163 4.74967C9.51385 4.74967 9.91663 4.91634 10.25 5.24967C10.5555 5.55523 10.7083 5.93023 10.7083 6.37467C10.7083 6.81912 10.5555 7.2219 10.25 7.58301C9.27774 8.63856 8.49329 9.78412 7.89662 11.0197C7.29885 12.2563 6.91662 13.583 6.74996 14.9997C6.6944 15.4719 6.50718 15.8675 6.18829 16.1863C5.86829 16.5063 5.47218 16.6663 4.99996 16.6663ZM35 16.6663C34.5555 16.6663 34.1666 16.5063 33.8333 16.1863C33.5 15.8675 33.3055 15.4719 33.25 14.9997C33.0833 13.583 32.7016 12.2563 32.105 11.0197C31.5072 9.78412 30.7222 8.63856 29.75 7.58301C29.4444 7.2219 29.2916 6.81912 29.2916 6.37467C29.2916 5.93023 29.4583 5.55523 29.7916 5.24967C30.125 4.91634 30.5205 4.74967 30.9783 4.74967C31.4372 4.74967 31.8194 4.90245 32.125 5.20801C33.375 6.54134 34.3822 8.04801 35.1466 9.72801C35.91 11.4091 36.3888 13.1663 36.5833 14.9997C36.6388 15.4441 36.5066 15.833 36.1866 16.1663C35.8677 16.4997 35.4722 16.6663 35 16.6663ZM8.33329 31.6663C7.86107 31.6663 7.46496 31.5063 7.14496 31.1863C6.82607 30.8675 6.66662 30.4719 6.66662 29.9997C6.66662 29.5275 6.82607 29.1319 7.14496 28.813C7.46496 28.493 7.86107 28.333 8.33329 28.333H9.99996V16.6663C9.99996 14.3608 10.6944 12.3119 12.0833 10.5197C13.4722 8.72856 15.2777 7.55523 17.5 6.99967V5.83301C17.5 5.13856 17.7433 4.54856 18.23 4.06301C18.7155 3.57634 19.3055 3.33301 20 3.33301C20.6944 3.33301 21.2844 3.57634 21.77 4.06301C22.2566 4.54856 22.5 5.13856 22.5 5.83301V6.99967C24.7222 7.55523 26.5277 8.72856 27.9166 10.5197C29.3055 12.3119 30 14.3608 30 16.6663V28.333H31.6666C32.1388 28.333 32.5344 28.493 32.8533 28.813C33.1733 29.1319 33.3333 29.5275 33.3333 29.9997C33.3333 30.4719 33.1733 30.8675 32.8533 31.1863C32.5344 31.5063 32.1388 31.6663 31.6666 31.6663H8.33329ZM20 36.6663C19.0833 36.6663 18.2988 36.3402 17.6466 35.688C16.9933 35.0347 16.6666 34.2497 16.6666 33.333H23.3333C23.3333 34.2497 23.0072 35.0347 22.355 35.688C21.7016 36.3402 20.9166 36.6663 20 36.6663ZM13.3333 28.333H26.6666V16.6663C26.6666 14.833 26.0138 13.2636 24.7083 11.958C23.4027 10.6525 21.8333 9.99967 20 9.99967C18.1666 9.99967 16.5972 10.6525 15.2916 11.958C13.9861 13.2636 13.3333 14.833 13.3333 16.6663V28.333Z" fill="#1C1B1F"/>
</g>
</svg>